#!OML:ASF E:\Style4\Style4.ASF
:FULLY-SPECIFIED
:DEGREES
2453
root 0.201111 17.5474 -0.683431 -0.759391 -3.47577 3.51463
lowerback 5.04179 5.06616 -2.57618
upperback 3.38995 6.66008 -5.29086
thorax 1.03453 3.35559 -4.28504
lowerneck 3.49731 -7.38438 -8.23589
upperneck 1.27946 -10.2976 13.0191
head 0.918493 -5.23212 5.17142
rclavicle -1.35174e-014 2.38542e-014
rhumerus 34.46 -12.0499 -15.7268
rradius 120.389
rwrist -41.7296
rhand -22.6156 35.1691
rfingers 7.12502
rthumb 3.81432 5.22351
lclavicle -1.35174e-014 2.38542e-014
lhumerus -48.2915 -41.292 91.7281
lradius 102.148
lwrist 20.1813
lhand -13.7615 24.0518
lfingers 7.12502
lthumb 12.3591 53.6665
rfemur -13.5267 3.17752 14.0622
rtibia 38.0455
rfoot -22.3535 -11.9681
rtoes -14.1655
lfemur -9.79721 1.15008 -23.4377
ltibia 33.4114
lfoot -23.0546 8.67792
ltoes -13.1669
2454
root 0.201405 17.5475 -0.681684 -0.758662 -3.50973 3.51538
lowerback 5.02513 5.07618 -2.55159
upperback 3.38307 6.67531 -5.30414
thorax 1.04198 3.36394 -4.31151
lowerneck 3.52967 -7.37682 -8.25276
upperneck 1.26844 -10.2901 13.075
head 0.912904 -5.22988 5.19291
rclavicle 8.94531e-015 -1.59028e-014
rhumerus 34.4596 -12.0109 -15.745
rradius 120.418
rwrist -41.6804
rhand -22.6534 35.1576
rfingers 7.12502
rthumb 3.77784 5.21136
lclavicle 8.94531e-015 -1.59028e-014
lhumerus -48.3225 -41.3257 91.7353
lradius 102.132
lwrist 20.1637
lhand -13.7895 24.0104
lfingers 7.12502
lthumb 12.3321 53.6267
rfemur -13.54 3.19036 14.0624
rtibia 38.0584
rfoot -22.2828 -12.0358
rtoes -14.3297
lfemur -9.78685 1.16651 -23.4372
ltibia 33.4089
lfoot -23.0597 8.57736
ltoes -12.4298
2455
root 0.201962 17.5476 -0.678639 -0.757841 -3.52993 3.57746
lowerback 5.00073 5.07595 -2.58479
upperback 3.36866 6.67453 -5.33552
thorax 1.04073 3.36331 -4.32418
lowerneck 3.61523 -7.37737 -8.17652
upperneck 1.18906 -10.2843 13.0265
head 0.868624 -5.23089 5.17198
rclavicle -2.40529e-014 -6.36111e-015
rhumerus 34.4562 -11.9673 -15.7806
rradius 120.427
rwrist -41.6429
rhand -22.7448 35.183
rfingers 7.12502
rthumb 3.68953 5.23521
lclavicle -2.40529e-014 -6.36111e-015
lhumerus -48.3731 -41.3122 91.7446
lradius 102.131
lwrist 20.153
lhand -13.769 23.9255
lfingers 7.12502
lthumb 12.3519 53.5406
rfemur -13.5471 3.18083 13.9853
rtibia 38.0633
rfoot -22.3038 -11.9847
rtoes -14.3974
lfemur -9.77666 1.18687 -23.5097
ltibia 33.4155
lfoot -23.0326 8.50034
ltoes -12.1236
2456
root 0.200947 17.5469 -0.67952 -0.768052 -3.52532 3.51474
lowerback 5.0524 5.0851 -2.48512
upperback 3.35951 6.68718 -5.32469
thorax 1.01325 3.37154 -4.37369
lowerneck 3.66916 -7.40288 -8.1757
upperneck 1.13073 -10.3165 13.0318
head 0.846547 -5.24989 5.17615
rclavicle 5.36719e-015 8.11041e-014
rhumerus 34.3671 -11.9761 -15.7083
rradius 120.446
rwrist -41.6733
rhand -22.8786 35.1856
rfingers 7.12502
rthumb 3.56037 5.23561
lclavicle 5.36719e-015 8.11041e-014
lhumerus -48.3918 -41.367 91.7835
lradius 102.118
lwrist 20.2039
lhand -13.6778 23.8966
lfingers 7.12502
lthumb 12.4397 53.5064
rfemur -13.5421 3.20797 14.0714
rtibia 38.0757
rfoot -22.3123 -12.0487
rtoes -14.7141
lfemur -9.77906 1.20096 -23.4303
ltibia 33.4299
lfoot -23.0112 8.48977
ltoes -12.4092
2457
root 0.20076 17.5452 -0.681026 -0.769522 -3.50746 3.48084
lowerback 5.07706 5.07281 -2.43469
upperback 3.35998 6.67134 -5.30537
thorax 1.00236 3.36432 -4.38317
lowerneck 3.62389 -7.39333 -8.2621
upperneck 1.16641 -10.3081 13.0469
head 0.868733 -5.24394 5.19172
rclavicle -1.98785e-016 0
rhumerus 34.3875 -11.9744 -15.6654
rradius 120.467
rwrist -41.6837
rhand -22.9667 35.1971
rfingers 7.12502
rthumb 3.47526 5.24573
lclavicle -1.98785e-016 0
lhumerus -48.3698 -41.3568 91.7896
lradius 102.108
lwrist 20.2085
lhand -13.5987 23.9265
lfingers 7.12502
lthumb 12.516 53.5316
rfemur -13.5475 3.22889 14.1115
rtibia 38.1011
rfoot -22.3183 -12.0533
rtoes -14.4481
lfemur -9.79689 1.18303 -23.3873
ltibia 33.4453
lfoot -23.0347 8.45371
ltoes -12.2672
2458
root 0.200358 17.5443 -0.68077 -0.760769 -3.49808 3.54069
lowerback 5.09422 5.07622 -2.46273
upperback 3.34287 6.67282 -5.3386
thorax 0.976222 3.36497 -4.405
lowerneck 3.59786 -7.39718 -8.23015
upperneck 1.18215 -10.3121 13.0457
head 0.876305 -5.24462 5.18469
rclavicle -7.35503e-014 1.11319e-014
rhumerus 34.3426 -11.9568 -15.6548
rradius 120.494
rwrist -41.6998
rhand -23.0507 35.3185
rfingers 7.12502
rthumb 3.39417 5.36575
lclavicle -7.35503e-014 1.11319e-014
lhumerus -48.3902 -41.3974 91.775
lradius 102.126
lwrist 20.1826
lhand -13.6452 23.8972
lfingers 7.12502
lthumb 12.4712 53.5051
rfemur -13.5769 3.21781 14.0365
rtibia 38.146
rfoot -22.3534 -11.9699
rtoes -14.1938
lfemur -9.8089 1.18531 -23.4588
ltibia 33.4621
lfoot -23.0773 8.53446
ltoes -12.5257
